<svg xmlns="http://www.w3.org/2000/svg" xmlns:xlink="http://www.w3.org/1999/xlink" t="1571052115462" class="icon" viewBox="0 0 1024 1024" version="1.1" p-id="3346" width="16" height="16" fill="#8590a6"><defs><style type="text/css"/></defs><path d="M1023.957301 390.170431c0-79.868669-64.50931-143.354022-143.354022-143.354022H143.354022c-79.868669 0-143.354022 64.50931-143.354022 143.354022V880.645978c0 79.868669 64.50931 143.354022 143.354022 143.354022h737.249257c79.868669 0 143.354022-64.50931 143.354022-143.354022V762.890888H727.009684c-70.653054 0-127.994663-57.341609-127.994663-127.994662S656.35663 506.901563 727.009684 506.901563h296.947617V390.170431z" p-id="3347"/><path d="M727.009684 634.896226m-55.293695 0a55.293694 55.293694 0 1 0 110.587389 0 55.293694 55.293694 0 1 0-110.587389 0Z" p-id="3348"/><path d="M834.5252 74.791582C787.423164 0.042699 688.099306-22.484362 613.350423 24.617674L373.744415 176.163355h525.290095l-64.50931-101.371773z" p-id="3349"/></svg>
