<svg t="1621260154668" class="icon" viewBox="0 0 1024 1024" version="1.1" xmlns="http://www.w3.org/2000/svg" p-id="5322" width="18" height="18"><path d="M933.793595 512A140.13478 140.13478 0 0 1 1024.000334 381.222159a524.79269 524.79269 0 0 0-57.311251-138.892062A139.988578 139.988578 0 0 1 781.743338 57.311251a527.131925 527.131925 0 0 0-138.892062-57.311251 139.915477 139.915477 0 0 1-261.555682 0 524.79269 524.79269 0 0 0-138.892062 57.311251 139.915477 139.915477 0 0 1-184.945745 185.018846 521.283838 521.283838 0 0 0-57.457453 138.892062 139.915477 139.915477 0 0 1 0 261.555682 524.79269 524.79269 0 0 0 57.311251 138.892062 139.988578 139.988578 0 0 1 184.945745 185.018846 527.131925 527.131925 0 0 0 138.892062 57.311251 139.915477 139.915477 0 0 1 261.555682 0 524.79269 524.79269 0 0 0 138.892062-57.311251 139.915477 139.915477 0 0 1 184.945745-185.018846 521.210737 521.210737 0 0 0 57.457453-138.892062A140.13478 140.13478 0 0 1 933.793595 512zM512.292739 652.500286A140.500286 140.500286 0 1 1 652.793024 512 140.573387 140.573387 0 0 1 512.292739 652.500286z" p-id="5323" fill="#8590a6"></path></svg>
