<svg t="1621260885174" class="icon" viewBox="0 0 1024 1024" version="1.1" xmlns="http://www.w3.org/2000/svg" p-id="22557" width="18" height="18"><path d="M511.997 12C235.859 12 12 235.858 12 511.996 12 788.142 235.859 1012 511.997 1012 788.142 1012 1012 788.142 1012 511.996 1012 235.858 788.142 12 511.997 12z m30.453 765.563c-10.304 10.297-22.813 15.521-37.202 15.521-14.407 0-26.822-5.238-36.896-15.557-10.055-10.289-15.149-22.567-15.149-36.488 0-14.367 5.094-26.876 15.149-37.18 10.084-10.318 22.499-15.55 36.896-15.55 14.371 0 26.89 5.217 37.202 15.514 10.304 10.325 15.521 22.834 15.521 37.202 0 13.943-5.217 26.235-15.521 36.538z m131.716-332.257c-7.083 15.989-16.011 30.357-26.523 42.7-10.484 12.292-21.998 23.468-34.24 33.217-12.055 9.605-23.331 19.52-33.498 29.471-10.095 9.879-18.67 20.449-25.479 31.43-6.607 10.649-9.958 23.439-9.958 38.038 0 10.354-3.854 19.462-11.472 27.07-7.608 7.609-16.947 11.472-27.744 11.472-10.83 0-20.07-3.87-27.453-11.515-7.36-7.595-11.093-16.695-11.093-27.027 0-21.134 3.628-39.572 10.794-54.805 7.079-15.081 16.003-28.757 26.53-40.653a243.825 243.825 0 0 1 34.593-32.198c12.185-9.309 23.562-19.098 33.786-29.099 10.073-9.868 18.634-20.751 25.429-32.363 6.636-11.345 10.001-24.959 10.001-40.473 0-11.075-2.486-21.447-7.379-30.829-4.942-9.454-11.601-17.732-19.765-24.621-8.214-6.914-17.862-12.386-28.663-16.277-10.829-3.902-22.25-5.876-33.951-5.876-29.997 0-53.616 8.189-70.196 24.347-16.778 16.342-28.382 37.929-34.507 64.161-2.432 10.675-7.072 18.615-13.795 23.587-6.64 4.929-13.802 7.425-21.281 7.425-9.843 0-18.911-3.707-26.956-11.021-8.139-7.4-12.268-17.571-12.268-30.223 0-10.762 3.499-24.61 10.397-41.161 6.874-16.5 17.65-32.85 32.032-48.601 14.393-15.758 33.016-29.419 55.353-40.595 22.441-11.215 49.768-16.908 81.22-16.908 20.945 0 41.74 3.235 61.814 9.616 20.097 6.406 38.06 15.683 53.393 27.572 15.405 11.964 27.993 27.107 37.403 45.005 9.446 17.989 14.238 38.513 14.238 61.016-0.004 22.437-3.621 41.993-10.762 58.118z m0 0" p-id="22558" fill="#8590a6"></path></svg>
