<svg t="1621312509574" class="icon" viewBox="0 0 1024 1024" version="1.1" xmlns="http://www.w3.org/2000/svg" p-id="45234" width="18" height="18"><path d="M512 0C229.266713 0 0.051164 229.215549 0.051164 511.948836s229.215549 511.948836 511.948836 511.948836 511.948836-229.215549 511.948836-511.948836S794.733287 0 512 0zM601.946637 800.003198 361.884281 800.003198c-53.006096 0-95.984011-42.977915-95.984011-95.984011L265.90027 319.980813c0-53.006096 42.977915-95.984011 95.984011-95.984011l239.960028 0c26.503048 0 47.992006 21.488958 47.992006 47.992006s-21.488958 47.992006-47.992006 47.992006L457.970621 319.980813l-47.992006 0c-26.503048 0-47.992006 21.284301-47.992006 47.582692 0 0.102328 0 0.204657 0 0.409313l0 0 0 47.992006 0 191.968022 0 47.992006c0 26.503048 21.284301 47.992006 47.582692 47.992006 0.102328 0 0.204657 0 0.409313 0l0 0 47.992006 0 143.976017 0c26.503048 0 47.992006 21.488958 47.992006 47.992006C649.938643 778.51424 628.449685 800.003198 601.946637 800.003198zM836.687918 526.991106l-95.984011 120.031178c-4.604777 5.832717-11.563106 9.004897-18.726092 9.004897-2.660538 0-5.321075-0.409313-7.981613-1.330269-9.618867-3.376836-16.065554-12.484061-16.065554-22.61457l0-72.039173L505.962626 560.04317c-26.503048 0-47.992006-21.488958-47.992006-47.992006 0-26.503048 21.488958-47.992006 47.992006-47.992006L697.930649 464.059159l0-72.039173c0-10.232837 6.446687-19.237734 16.065554-22.61457 2.558209-0.920955 5.321075-1.330269 7.981613-1.330269 7.162986 0 14.121315 3.172179 18.726092 9.004897l95.984011 120.031178C843.646248 505.809134 843.646248 518.190866 836.687918 526.991106z" p-id="45235" fill="#8590a6"></path></svg>
