<svg t="1621312868859" class="icon" viewBox="0 0 1024 1024" version="1.1" xmlns="http://www.w3.org/2000/svg" p-id="31307" width="20" height="20"><path d="M610.786659 430.092497c8.579055-11.392514 14.296832-25.635148 14.296832-42.721528 0-14.242635-5.717776-25.636742-11.437146-37.027662-5.717776-8.542393-17.166081-17.086379-28.601633-22.781839-11.441929-5.698648-37.179095-8.542393-71.500098-8.542393l-94.379173 0 0 139.555503 91.521082 0c25.73876 0 45.75815-2.848527 62.917855-5.700242C587.909178 450.030592 602.206009 441.486605 610.786659 430.092497L610.786659 430.092497zM512 0 98.093257 133.973219l2.096146 521.712409 0.468644 5.650827c0.752381 3.430347 16.670338 86.314989 96.314322 166.153444 61.23775 61.553367 211.398317 141.94495 275.479812 176.261171 10.069471 5.405347 17.575746 9.395197 21.88759 11.843623l15.210209 8.405306 18.680407-9.666182c37.458049-18.720258 227.953885-115.689725 298.744641-186.727555 79.726873-79.916563 95.646425-162.796422 96.320698-166.231551l2.611017-527.361642L512 0 512 0zM733.754713 740.529329c-2.854903 5.698648-8.577461 11.392514-17.161299 14.242635-8.577461 2.845339-17.154923 5.693866-25.737166 5.693866-11.437146 0-20.01939-2.843745-28.596851-8.542393-8.582243-5.693866-14.301614-11.392514-20.024172-19.9365-5.714588-8.539205-14.301614-19.938094-22.875887-37.024474l-40.03878-68.353488c-14.301614-25.635148-28.596851-45.566867-40.03878-56.964162-11.441929-11.389326-22.882263-19.931718-34.321003-25.625584-11.441929-5.698648-28.601633-8.543987-45.761338-8.543987l-37.175907 0 0 162.337342c0 19.9365-5.71937 34.179135-14.301614 45.566867-8.577461 8.548769-22.879075 14.244229-37.179095 14.244229-14.296832 0-28.596851-5.693866-37.175907-17.083191-8.582243-8.547175-14.301614-25.635148-14.301614-45.576431L319.065302 307.620186c0-22.785027 5.717776-39.877783 14.301614-48.416988 11.437146-8.548769 25.737166-14.247417 48.617835-14.247417l165.879271 0c17.663417 0 33.626008 0 47.878206 1.315073 4.208232 0.387349 8.269814 0.884685 12.179963 1.535048 14.301614 2.848527 28.596851 5.698648 42.893683 11.397296 17.166081 5.693866 31.4661 17.086379 42.903247 28.480487 14.301614 11.387732 22.883857 25.630366 28.601633 42.716746 5.71937 14.242635 8.577461 34.179135 8.577461 51.265515 0 39.877783-11.437146 68.35827-31.454942 91.140109-22.880669 22.786621-54.345175 39.879377-97.24364 48.42177 17.166081 8.542393 34.324192 22.786621 51.48549 42.71834 14.296832 19.941283 28.596851 39.873001 42.893683 59.812689 11.441929 19.942877 22.882263 39.879377 31.456536 62.659622 8.577461 17.087973 11.441929 28.475705 11.441929 34.174353C739.478865 726.288289 736.614398 734.830681 733.754713 740.529329L733.754713 740.529329zM733.754713 740.529329" p-id="31308" fill="#8590a6"></path></svg>
