<svg t="1621260780982" class="icon" viewBox="0 0 1024 1024" version="1.1" xmlns="http://www.w3.org/2000/svg" p-id="18042" width="18" height="18"><path d="M493.2608 209.7152L328.4992 410.5216 65.6384 312.4224l120.4224 490.496h649.216l131.7888-490.496-300.4416 98.0992-173.3632-200.8064z m-302.08 753.0496h650.3424V825.856H191.1808v136.9088z m295.7312-768c35.1232 0 63.5904-29.7984 63.5904-66.6624 0-36.864-28.4672-66.6624-63.5904-66.6624s-63.5904 29.7984-63.5904 66.6624c-0.1024 36.864 28.3648 66.6624 63.5904 66.6624z m473.6-15.6672c-35.0208 0-63.488 29.7984-63.488 66.6624 0 36.864 28.3648 66.6624 63.488 66.6624 35.0208 0 63.488-29.7984 63.488-66.6624 0-36.864-28.3648-66.6624-63.488-66.6624zM135.4752 245.76c0-36.864-28.3648-66.6624-63.488-66.6624-35.0208 0-63.488 29.7984-63.488 66.6624 0 36.864 28.3648 66.6624 63.488 66.6624s63.488-29.7984 63.488-66.6624z" p-id="18043" fill="#8590a6"></path></svg>
