<svg t="1621312419476" class="icon" viewBox="0 0 1024 1024" version="1.1" xmlns="http://www.w3.org/2000/svg" p-id="42683" width="18" height="18"><path d="M27.144127 999.619048C73.142857 820.825397 314.920635 106.707302 1001.163175 10.565079a8.858413 8.858413 0 0 1 9.346031 9.914921c-5.20127 72.086349-43.398095 185.132698-245.67873 275.586032a8.614603 8.614603 0 0 0-2.194286 13.572063c19.179683 17.960635 79.319365 9.020952 111.908572 3.088254a5.770159 5.770159 0 0 1 5.28254 8.777143c-28.688254 48.761905-105.000635 165.059048-367.339683 221.622857-4.794921 0.975238-4.307302 8.777143 0.568889 9.589841l59.977143 10.32127a10.727619 10.727619 0 0 1 6.745397 15.76635C552.634921 624.72127 427.560635 745.894603 216.990476 763.936508a44.617143 44.617143 0 0 0-33.889524 20.39873C146.285714 840.899048 73.142857 937.772698 35.75873 1004.413968c-3.250794 5.12-10.15873 1.219048-8.614603-4.79492zM867.799365 1011.078095s-757.109841-9.99619-757.109841-22.349206l757.109841-22.267937a22.349206 22.349206 0 0 1 22.349206 22.267937 22.349206 22.349206 0 0 1-22.349206 22.349206z" fill="#8590a6" p-id="42684"></path></svg>
